<svg width="43" height="42" viewBox="0 0 43 42" fill="none" xmlns="http://www.w3.org/2000/svg">
<path d="M24.9666 41.7266C24.7875 41.7551 24.6077 41.7814 24.4272 41.8054C24.6077 41.7814 24.7875 41.7551 24.9666 41.7266Z" fill="black"/>
<path d="M25.3968 41.6553C25.3111 41.6707 25.2255 41.6848 25.1399 41.6992C25.2255 41.6848 25.3111 41.6707 25.3968 41.6553Z" fill="black"/>
<path d="M23.9469 41.8643C23.7372 41.8873 23.5263 41.9078 23.3147 41.9251C23.5263 41.9078 23.7372 41.8873 23.9469 41.8643Z" fill="black"/>
<path d="M24.36 41.8145C24.2593 41.8278 24.1579 41.8402 24.0569 41.8519C24.1579 41.8402 24.2593 41.8278 24.36 41.8145Z" fill="black"/>
<path d="M25.9819 41.541C25.9064 41.5567 25.8307 41.5724 25.7549 41.5875C25.8307 41.5724 25.9064 41.5567 25.9819 41.541Z" fill="black"/>
<path d="M27.4345 41.1895C27.3735 41.2064 27.3125 41.2225 27.2515 41.2391C27.3125 41.2225 27.3735 41.2064 27.4345 41.1895Z" fill="black"/>
<path d="M26.9954 41.3066C26.9291 41.3236 26.8625 41.3409 26.7959 41.3573C26.8625 41.3409 26.9291 41.3239 26.9954 41.3066Z" fill="black"/>
<path d="M26.4207 41.4463C26.3505 41.4623 26.2796 41.4774 26.2087 41.4928C26.2796 41.4774 26.3505 41.4623 26.4207 41.4463Z" fill="black"/>
<path d="M23.3079 41.9258C23.1947 41.9352 23.0815 41.9437 22.968 41.9512C23.0815 41.9437 23.1947 41.9352 23.3079 41.9258Z" fill="black"/>
<path d="M43 21C43 9.40379 33.3723 0 21.5 0C9.62769 0 0 9.40379 0 21C0 32.5962 9.62769 42 21.5 42C21.6263 42 21.752 41.9974 21.8779 41.9952V25.6476H17.2588V20.3896H21.8779V16.5203C21.8779 12.033 24.6825 9.59061 28.7807 9.59061C30.7432 9.59061 32.4301 9.73352 32.9219 9.79729V14.4872H30.0959C27.8664 14.4872 27.4347 15.5222 27.4347 17.0407V20.3896H32.7657L32.0709 25.6476H27.4347V41.1887C36.4213 38.6723 43 30.5855 43 21Z" fill="#C5B385"/>
<path d="M22.9207 41.9531C22.6969 41.9674 22.4722 41.9788 22.2468 41.9863C22.4722 41.9788 22.6969 41.9674 22.9207 41.9531Z" fill="black"/>
<path d="M22.2351 41.9863C22.1163 41.9902 21.9973 41.9932 21.8782 41.9951C21.9973 41.9932 22.1163 41.9902 22.2351 41.9863Z" fill="black"/>
</svg>
