<svg width="44" height="43" viewBox="0 0 44 43" fill="none" xmlns="http://www.w3.org/2000/svg">
<path fill-rule="evenodd" clip-rule="evenodd" d="M0 21.5C0 9.62769 9.85159 0 22 0C34.1484 0 44 9.62769 44 21.5C44 33.3723 34.1484 43 22 43C9.85159 43 0 33.3723 0 21.5ZM33.9695 29.5868C34.2817 28.8014 34.4955 27.9041 34.5566 26.5899C34.6184 25.2734 34.6328 24.8528 34.6328 21.5C34.6328 18.1472 34.6184 17.7266 34.5569 16.4101C34.4955 15.0959 34.282 14.1986 33.9695 13.4132C33.6526 12.5895 33.1551 11.8434 32.5126 11.2267C31.8815 10.5984 31.1178 10.1122 30.2748 9.80222C29.4712 9.49745 28.5531 9.2888 27.2083 9.2291C25.8611 9.16873 25.4308 9.1543 22 9.1543C18.5692 9.1543 18.1389 9.16873 16.7917 9.22877C15.4469 9.2888 14.5288 9.49745 13.7252 9.80255C12.8822 10.1126 12.1185 10.5984 11.4878 11.2267C10.8449 11.8431 10.3474 12.5895 10.0302 13.4132C9.71799 14.1986 9.50449 15.0959 9.44339 16.4101C9.38162 17.7266 9.36719 18.1472 9.36719 21.5C9.36719 24.8528 9.38162 25.2734 9.44373 26.5902C9.50482 27.9041 9.71866 28.8017 10.0309 29.5868C10.3481 30.4105 10.8452 31.1569 11.4878 31.7733C12.1189 32.4016 12.8822 32.8874 13.7255 33.1974C14.5288 33.5025 15.4473 33.7112 16.7917 33.7712C18.1392 33.8313 18.5692 33.8457 22.0003 33.8457C25.4311 33.8457 25.8615 33.8313 27.2086 33.7712C28.5531 33.7112 29.4715 33.5025 30.2748 33.1974C31.9718 32.5561 33.3132 31.2451 33.9695 29.5868ZM31.8479 14.2188C31.6454 13.6828 31.3225 13.1976 30.9029 12.7993C30.4953 12.3892 29.9992 12.0736 29.4503 11.8758C29.0052 11.7069 28.3365 11.5058 27.1048 11.451C25.7725 11.3916 25.373 11.3788 22 11.3788C18.6266 11.3788 18.2271 11.3913 16.8951 11.4506C15.6634 11.5058 14.9944 11.7069 14.5496 11.8758C14.0007 12.0736 13.5042 12.3892 13.097 12.7993C12.6774 13.1976 12.3545 13.6825 12.1517 14.2188C11.9788 14.6539 11.7731 15.3077 11.717 16.5114C11.6562 17.8131 11.6431 18.2035 11.6431 21.5002C11.6431 24.7966 11.6562 25.187 11.717 26.4891C11.7731 27.6928 11.9788 28.3463 12.1517 28.7813C12.3545 29.3177 12.6771 29.8025 13.0967 30.2008C13.5042 30.6109 14.0004 30.9265 14.5492 31.1243C14.9944 31.2936 15.6634 31.4947 16.8951 31.5495C18.2271 31.6089 18.6262 31.6213 21.9996 31.6213C25.3733 31.6213 25.7728 31.6089 27.1045 31.5495C28.3362 31.4947 29.0052 31.2936 29.4503 31.1243C30.5521 30.709 31.4229 29.858 31.8479 28.7813C32.0207 28.3463 32.2265 27.6928 32.2829 26.4891C32.3437 25.187 32.3564 24.7966 32.3564 21.5002C32.3564 18.2035 32.3437 17.8131 32.2829 16.5114C32.2268 15.3077 32.0211 14.6539 31.8479 14.2188ZM22 27.8394C18.4171 27.8394 15.5127 25.0013 15.5127 21.4999C15.5127 17.9985 18.4171 15.1604 22 15.1604C25.5825 15.1604 28.4869 17.9985 28.4869 21.4999C28.4869 25.0013 25.5825 27.8394 22 27.8394ZM28.7434 16.3913C27.9061 16.3913 27.2274 15.7279 27.2274 14.9098C27.2274 14.0916 27.9061 13.4282 28.7434 13.4282C29.5806 13.4282 30.2593 14.0916 30.2593 14.9098C30.259 15.7279 29.5806 16.3913 28.7434 16.3913ZM26.2109 21.5C26.2109 23.7728 24.3257 25.6152 22 25.6152C19.6743 25.6152 17.7891 23.7728 17.7891 21.5C17.7891 19.2272 19.6743 17.3848 22 17.3848C24.3257 17.3848 26.2109 19.2272 26.2109 21.5Z" fill="#C5B385"/>
</svg>
