<svg width="42" height="43" viewBox="0 0 42 43" fill="none" xmlns="http://www.w3.org/2000/svg">
<path d="M18.3843 25.5276L25.2153 21.4996L18.3843 17.4717V25.5276Z" fill="#C5B385"/>
<path d="M21 0C9.40379 0 0 9.62769 0 21.5C0 33.3723 9.40379 43 21 43C32.5962 43 42 33.3723 42 21.5C42 9.62769 32.5962 0 21 0ZM34.1218 21.522C34.1218 21.522 34.1218 25.8823 33.5815 27.9848C33.2787 29.1357 32.3924 30.0431 31.2683 30.3528C29.2147 30.9062 21 30.9062 21 30.9062C21 30.9062 12.8068 30.9062 10.7317 30.3308C9.60759 30.0211 8.72127 29.1134 8.41846 27.9625C7.87788 25.8823 7.87788 21.5 7.87788 21.5C7.87788 21.5 7.87788 17.14 8.41846 15.0375C8.72095 13.8866 9.62906 12.9569 10.7317 12.6472C12.7853 12.0938 21 12.0938 21 12.0938C21 12.0938 29.2147 12.0938 31.2683 12.6692C32.3924 12.9789 33.2787 13.8866 33.5815 15.0375C34.1436 17.14 34.1218 21.522 34.1218 21.522Z" fill="#C5B385"/>
</svg>
