<svg width="42" height="42" viewBox="0 0 42 42" fill="none" xmlns="http://www.w3.org/2000/svg">
<path d="M21 0C9.40379 0 0 9.40379 0 21C0 32.5962 9.40379 42 21 42C32.5962 42 42 32.5962 42 21C42 9.40379 32.5962 0 21 0ZM30.5884 16.3736C30.5977 16.5802 30.6021 16.7879 30.6021 16.9965C30.6021 23.3658 25.754 30.7104 16.8879 30.7108C14.1658 30.7108 11.6327 29.9129 9.4996 28.5456C9.87675 28.5901 10.2606 28.6122 10.6493 28.6122C12.9077 28.6122 14.9861 27.8419 16.636 26.549C14.5259 26.5099 12.7469 25.1163 12.1329 23.2011C12.4268 23.2575 12.7289 23.2882 13.0388 23.2882C13.4788 23.2882 13.9049 23.2289 14.31 23.1184C12.1044 22.6768 10.443 20.7276 10.443 18.3936C10.443 18.3718 10.443 18.3522 10.4436 18.3321C11.0931 18.6932 11.8359 18.9104 12.6267 18.9348C11.3325 18.0712 10.4817 16.595 10.4817 14.9226C10.4817 14.0395 10.7205 13.2122 11.1345 12.4998C13.5114 15.4164 17.0638 17.3345 21.0699 17.5361C20.9872 17.183 20.9446 16.8151 20.9446 16.437C20.9446 13.7761 23.1033 11.6174 25.7652 11.6174C27.1517 11.6174 28.404 12.2034 29.2836 13.1404C30.3817 12.9238 31.4128 12.5226 32.3443 11.9705C31.9839 13.0955 31.2199 14.0395 30.2247 14.6365C31.1998 14.5199 32.129 14.2613 32.9926 13.8774C32.3475 14.8441 31.5295 15.6933 30.5884 16.3736Z" fill="#C5B385"/>
</svg>
