<svg width="42" height="42" viewBox="0 0 42 42" fill="none" xmlns="http://www.w3.org/2000/svg">
<path d="M21 0C9.40379 0 0 9.40379 0 21C0 32.5962 9.40379 42 21 42C32.5962 42 42 32.5962 42 21C42 9.40379 32.5962 0 21 0ZM21.4451 33.2268C21.4448 33.2268 21.4454 33.2268 21.4451 33.2268H21.44C19.3363 33.2259 17.2692 32.6984 15.4334 31.6974L8.77061 33.4447L10.5538 26.9335C9.45378 25.0282 8.87508 22.8665 8.87604 20.652C8.87892 13.7242 14.5173 8.08809 21.4451 8.08809C24.8071 8.08937 27.963 9.39803 30.3359 11.7728C32.709 14.1478 34.0151 17.3047 34.0138 20.6619C34.0109 27.5901 28.3719 33.2268 21.4451 33.2268Z" fill="#C5B385"/>
<path d="M21.4491 10.21C15.6867 10.21 11.0004 14.8944 10.9978 20.6526C10.9972 22.6258 11.5496 24.5475 12.5952 26.2102L12.8435 26.6053L11.788 30.4592L15.7418 29.4223L16.1235 29.6485C17.7273 30.6002 19.5659 31.1036 21.4404 31.1042H21.4446C27.2025 31.1042 31.8889 26.4195 31.8914 20.6609C31.8924 17.8703 30.8067 15.2466 28.8345 13.2727C26.8622 11.2988 24.2391 10.2109 21.4491 10.21ZM27.5938 25.1425C27.332 25.8757 26.0775 26.5451 25.4741 26.6354C24.9329 26.7162 24.2484 26.7498 23.496 26.5111C23.0397 26.3663 22.4549 26.173 21.7054 25.8497C18.5553 24.4898 16.4977 21.3188 16.3407 21.1092C16.1837 20.8997 15.0584 19.4068 15.0584 17.8613C15.0584 16.3162 15.8697 15.5564 16.1574 15.2424C16.4455 14.928 16.7858 14.8495 16.9951 14.8495C17.2043 14.8495 17.4139 14.8515 17.5968 14.8604C17.7897 14.87 18.0486 14.787 18.3034 15.3994C18.5652 16.0281 19.1932 17.5732 19.2717 17.7302C19.3503 17.8876 19.4025 18.0709 19.298 18.2804C19.1932 18.49 18.8452 18.9421 18.513 19.3542C18.3736 19.5269 18.1919 19.6807 18.3752 19.9951C18.5581 20.3091 19.1888 21.3374 20.1222 22.1699C21.3219 23.2395 22.3338 23.5708 22.6478 23.7281C22.9615 23.8851 23.1448 23.8589 23.3281 23.6496C23.5111 23.4401 24.1132 22.7329 24.3224 22.4185C24.5317 22.1042 24.7412 22.1567 25.029 22.2615C25.3171 22.366 26.8609 23.1257 27.1749 23.2827C27.489 23.4401 27.6982 23.5186 27.7767 23.6496C27.8555 23.7807 27.8555 24.4091 27.5938 25.1425Z" fill="#C5B385"/>
</svg>
