<svg width="82" height="16" viewBox="0 0 82 16" fill="none" xmlns="http://www.w3.org/2000/svg">
<path d="M10.5344 0.87023V6.29771H8.9313C8.8855 5.9313 8.83206 5.61832 8.77099 5.35878C8.72519 5.08397 8.64122 4.8626 8.51908 4.69466C8.39695 4.51145 8.22137 4.38168 7.99237 4.30534C7.77863 4.22901 7.48092 4.19084 7.09924 4.19084H4.83206V7.28244H6.16031V6.29771H7.87786V8.9313H6.16031V7.99237H4.83206V11.6794H7.25954C7.79389 11.6794 8.18321 11.5802 8.42748 11.3817C8.67176 11.1679 8.83969 10.9313 8.9313 10.6718C9.0229 10.3969 9.0687 10.1298 9.0687 9.87023C9.08397 9.61069 9.1145 9.41985 9.1603 9.29771H10.855V15H0.916031V11.6794H2.26718V4.19084H0.916031V0.87023H10.5344ZM15.8526 4.96947C16.0053 4.80153 16.135 4.64122 16.2419 4.48855C16.3488 4.33588 16.4709 4.20611 16.6083 4.09924C16.761 3.9771 16.9518 3.8855 17.1809 3.82443C17.4251 3.74809 17.761 3.70992 18.1885 3.70992C18.7076 3.70992 19.135 3.77099 19.4709 3.89313C19.8068 4.01527 20.074 4.18321 20.2725 4.39695C20.4862 4.59542 20.6312 4.8397 20.7076 5.12977C20.7992 5.41985 20.845 5.72519 20.845 6.0458V11.6794H21.6923V15H17.7534V11.6794H18.6007V8.42748C18.6007 8.03053 18.5015 7.70229 18.303 7.44275C18.1045 7.16794 17.761 7.03053 17.2725 7.03053C16.7839 7.03053 16.4251 7.16794 16.1961 7.44275C15.9671 7.70229 15.8526 8.03053 15.8526 8.42748V11.6794H16.7228V15H12.761V11.6794H13.6083V7.16794H12.761V3.84733C13.2954 3.84733 13.8144 3.83969 14.3183 3.82443C14.8221 3.80916 15.3335 3.77099 15.8526 3.70992V4.96947ZM31.3104 4.14504V11.6794H32.1807V15C31.6311 15 31.1043 15.0076 30.6005 15.0229C30.112 15.0382 29.6005 15.0763 29.0662 15.1374V14.3588C28.9288 14.5573 28.6616 14.7405 28.2646 14.9084C27.8677 15.0611 27.4173 15.1374 26.9135 15.1374C26.1196 15.1374 25.5013 14.9924 25.0585 14.7023C24.6158 14.4122 24.2799 14.0687 24.0509 13.6718C23.8372 13.2748 23.6998 12.8626 23.6387 12.4351C23.5929 11.9924 23.57 11.626 23.57 11.3359C23.57 11.0153 23.5853 10.7023 23.6158 10.3969C23.6616 10.0763 23.7074 9.78626 23.7532 9.52672C23.799 9.26718 23.8372 9.0458 23.8677 8.8626C23.9135 8.66412 23.9364 8.53435 23.9364 8.47328C23.9364 8.24428 23.9975 8.00763 24.1196 7.76336C24.2417 7.51908 24.4326 7.29771 24.6921 7.09924C24.9517 6.8855 25.2723 6.70992 25.654 6.57252C26.0509 6.43511 26.5242 6.36641 27.0738 6.36641C27.5624 6.36641 27.9822 6.43511 28.3333 6.57252C28.6845 6.69466 28.9288 6.84733 29.0662 7.03053V4.14504H28.2188V0.824428C28.7532 0.824428 29.2723 0.816794 29.7761 0.801528C30.2799 0.786261 30.7914 0.748093 31.3104 0.687024V4.14504ZM26.2036 9.80153C26.2036 9.96947 26.2112 10.1679 26.2265 10.3969C26.257 10.626 26.3181 10.8473 26.4097 11.0611C26.5013 11.2595 26.6387 11.4351 26.8219 11.5878C27.0204 11.7405 27.2952 11.8168 27.6463 11.8168C27.9822 11.8168 28.2417 11.7405 28.4249 11.5878C28.6234 11.4351 28.7685 11.2595 28.8601 11.0611C28.9517 10.8473 29.0051 10.626 29.0204 10.3969C29.0509 10.1679 29.0662 9.96947 29.0662 9.80153V9.0687C29.0662 8.91603 29.0509 8.72519 29.0204 8.49618C29.0051 8.25191 28.9517 8.0229 28.8601 7.80916C28.7685 7.59542 28.6234 7.41221 28.4249 7.25954C28.2417 7.10687 27.9822 7.03053 27.6463 7.03053C27.2952 7.03053 27.0204 7.10687 26.8219 7.25954C26.6387 7.41221 26.5013 7.59542 26.4097 7.80916C26.3181 8.0229 26.257 8.25191 26.2265 8.49618C26.2112 8.72519 26.2036 8.91603 26.2036 9.0687V9.80153ZM43.4446 3.84733V7.16794H42.5744L44.4522 10.6718L46.353 7.16794H45.5057V3.84733H49.4446V7.16794H48.5744L44.8645 15.1374H44.0629L41.4751 9.54962L38.8645 15.1374H38.04L34.3301 7.16794H33.4599V3.84733H37.4217V7.16794H36.5744L38.4522 10.6718L40.3301 7.16794H39.4828V3.84733H43.4446ZM55.1097 3.70992C55.8425 3.70992 56.4761 3.81679 57.0105 4.03053C57.5448 4.22901 57.9799 4.48092 58.3158 4.78626C58.667 5.0916 58.9265 5.43511 59.0944 5.81679C59.2624 6.18321 59.3463 6.53435 59.3463 6.87023C59.3463 7.34351 59.3082 7.78626 59.2318 8.19847C59.1555 8.59542 59.1173 9.00763 59.1173 9.43511C59.1173 9.8626 59.1555 10.2748 59.2318 10.6718C59.3082 11.0687 59.3463 11.5038 59.3463 11.9771C59.3463 12.313 59.2624 12.6718 59.0944 13.0534C58.9265 13.4198 58.667 13.7557 58.3158 14.0611C57.9799 14.3664 57.5448 14.626 57.0105 14.8397C56.4761 15.0382 55.8425 15.1374 55.1097 15.1374C54.3769 15.1374 53.7433 15.0382 53.2089 14.8397C52.6746 14.626 52.2318 14.3664 51.8807 14.0611C51.5448 13.7557 51.2929 13.4198 51.125 13.0534C50.957 12.6718 50.8731 12.313 50.8731 11.9771C50.8731 11.5038 50.9112 11.0687 50.9876 10.6718C51.0639 10.2748 51.1021 9.8626 51.1021 9.43511C51.1021 9.00763 51.0639 8.59542 50.9876 8.19847C50.9112 7.78626 50.8731 7.34351 50.8731 6.87023C50.8731 6.53435 50.957 6.18321 51.125 5.81679C51.2929 5.43511 51.5448 5.0916 51.8807 4.78626C52.2318 4.48092 52.6746 4.22901 53.2089 4.03053C53.7433 3.81679 54.3769 3.70992 55.1097 3.70992ZM56.8273 8.29008C56.8273 8.15267 56.7967 8.01527 56.7357 7.87786C56.6899 7.72519 56.5983 7.58779 56.4608 7.46565C56.3387 7.32824 56.1631 7.22137 55.9341 7.14504C55.7204 7.0687 55.4456 7.03053 55.1097 7.03053C54.7738 7.03053 54.4914 7.0687 54.2624 7.14504C54.0486 7.22137 53.8731 7.32824 53.7357 7.46565C53.6135 7.58779 53.5219 7.72519 53.4608 7.87786C53.415 8.01527 53.3921 8.15267 53.3921 8.29008V10.5573C53.3921 10.6947 53.415 10.8397 53.4608 10.9924C53.5219 11.1298 53.6135 11.2672 53.7357 11.4046C53.8731 11.5267 54.0486 11.626 54.2624 11.7023C54.4914 11.7786 54.7738 11.8168 55.1097 11.8168C55.4456 11.8168 55.7204 11.7786 55.9341 11.7023C56.1631 11.626 56.3387 11.5267 56.4608 11.4046C56.5983 11.2672 56.6899 11.1298 56.7357 10.9924C56.7967 10.8397 56.8273 10.6947 56.8273 10.5573V8.29008ZM62.0683 7.16794H61.221V3.84733C61.7553 3.84733 62.2744 3.83969 62.7782 3.82443C63.282 3.80916 63.7935 3.77099 64.3126 3.70992V4.96947C64.6332 4.61832 65.0683 4.32061 65.6179 4.07634C66.1828 3.83206 66.908 3.70992 67.7935 3.70992C68.45 3.70992 68.992 3.79389 69.4194 3.96183C69.8622 4.1145 70.2057 4.31298 70.45 4.55725C70.6942 4.78626 70.8622 5.03817 70.9538 5.31298C71.0607 5.57252 71.1141 5.80916 71.1141 6.0229C71.1141 6.32824 71.0988 6.64886 71.0683 6.98473C71.053 7.30534 70.992 7.60305 70.8851 7.87786C70.7935 8.15267 70.6484 8.38168 70.45 8.56489C70.2668 8.74809 70.0149 8.83969 69.6942 8.83969C69.2057 8.83969 68.8317 8.74809 68.5721 8.56489C68.3278 8.36641 68.2057 8.21374 68.2057 8.10687C68.2057 8.01527 68.2286 7.94657 68.2744 7.90076C68.3355 7.83969 68.3965 7.79389 68.4576 7.76336C68.5187 7.71756 68.5721 7.67176 68.6179 7.62595C68.679 7.56489 68.7095 7.48092 68.7095 7.37405C68.7095 7.32824 68.6637 7.28244 68.5721 7.23664C68.4958 7.19084 68.3889 7.15267 68.2515 7.12214C68.1294 7.0916 67.992 7.0687 67.8393 7.05344C67.7019 7.03817 67.5797 7.03053 67.4729 7.03053C66.8927 7.03053 66.4042 7.0916 66.0072 7.21374C65.6103 7.32061 65.282 7.45802 65.0225 7.62595C64.7782 7.79389 64.595 7.9771 64.4729 8.17557C64.366 8.35878 64.3126 8.51908 64.3126 8.65649V11.6794H65.1828V15H61.221V11.6794H62.0683V7.16794ZM80.2216 4.14504V11.6794H81.0918V15C80.5422 15 80.0155 15.0076 79.5117 15.0229C79.0231 15.0382 78.5117 15.0763 77.9773 15.1374V14.3588C77.8399 14.5573 77.5727 14.7405 77.1758 14.9084C76.7788 15.0611 76.3284 15.1374 75.8246 15.1374C75.0307 15.1374 74.4124 14.9924 73.9697 14.7023C73.5269 14.4122 73.191 14.0687 72.962 13.6718C72.7483 13.2748 72.6109 12.8626 72.5498 12.4351C72.504 11.9924 72.4811 11.626 72.4811 11.3359C72.4811 11.0153 72.4964 10.7023 72.5269 10.3969C72.5727 10.0763 72.6185 9.78626 72.6643 9.52672C72.7101 9.26718 72.7483 9.0458 72.7788 8.8626C72.8246 8.66412 72.8475 8.53435 72.8475 8.47328C72.8475 8.24428 72.9086 8.00763 73.0307 7.76336C73.1529 7.51908 73.3437 7.29771 73.6033 7.09924C73.8628 6.8855 74.1834 6.70992 74.5651 6.57252C74.962 6.43511 75.4353 6.36641 75.9849 6.36641C76.4735 6.36641 76.8933 6.43511 77.2445 6.57252C77.5956 6.69466 77.8399 6.84733 77.9773 7.03053V4.14504H77.13V0.824428C77.6643 0.824428 78.1834 0.816794 78.6872 0.801528C79.191 0.786261 79.7025 0.748093 80.2216 0.687024V4.14504ZM75.1147 9.80153C75.1147 9.96947 75.1223 10.1679 75.1376 10.3969C75.1681 10.626 75.2292 10.8473 75.3208 11.0611C75.4124 11.2595 75.5498 11.4351 75.733 11.5878C75.9315 11.7405 76.2063 11.8168 76.5575 11.8168C76.8933 11.8168 77.1529 11.7405 77.3361 11.5878C77.5346 11.4351 77.6796 11.2595 77.7712 11.0611C77.8628 10.8473 77.9162 10.626 77.9315 10.3969C77.962 10.1679 77.9773 9.96947 77.9773 9.80153V9.0687C77.9773 8.91603 77.962 8.72519 77.9315 8.49618C77.9162 8.25191 77.8628 8.0229 77.7712 7.80916C77.6796 7.59542 77.5346 7.41221 77.3361 7.25954C77.1529 7.10687 76.8933 7.03053 76.5575 7.03053C76.2063 7.03053 75.9315 7.10687 75.733 7.25954C75.5498 7.41221 75.4124 7.59542 75.3208 7.80916C75.2292 8.0229 75.1681 8.25191 75.1376 8.49618C75.1223 8.72519 75.1147 8.91603 75.1147 9.0687V9.80153Z" fill="#442A1B"/>
</svg>
