<svg width="37" height="34" viewBox="0 0 37 34" fill="none" xmlns="http://www.w3.org/2000/svg">
<path fill-rule="evenodd" clip-rule="evenodd" d="M0 0C0 0 5.68715 5.2067 11.4312 7.02904C28.183 12.3439 23.5389 17.293 17.3827 27.5811C15.5394 30.6618 14.8519 33.1287 14.6522 33.8465C14.6048 34.0173 14.5049 34.0149 14.5154 33.9833C14.5406 33.9077 14.229 32.7739 14.2359 31.412C14.2589 26.8694 18.8895 21.8563 12.544 19.7919C12.0889 19.6438 10.9696 19.1981 10.5003 18.961C10.1526 18.7853 14.4901 17.2199 14.1514 16.9648C13.8291 16.7221 9.44275 18.1565 9.12961 17.8515C8.03034 16.7812 6.98847 15.3567 6.01991 13.7827C5.90674 13.599 10.9966 14.011 10.8853 13.8234C10.7833 13.6509 5.47911 12.8775 5.37867 12.7024C4.9481 11.9513 4.53328 11.1777 4.13637 10.4023C3.49684 9.15234 3.69571 9.49448 3.48668 9.04251C3.42578 8.91095 8.45548 10.0295 8.39599 9.89853C8.25404 9.58571 3.02554 8.02421 2.89128 7.71628C2.44333 6.68907 2.03898 5.69452 1.68466 4.78064C1.56358 4.4685 9.2009 7.42293 1.33918 3.87396C1.06494 3.75016 0.15615 0.513266 0 0Z" fill="#F3AC00"/>
<path fill-rule="evenodd" clip-rule="evenodd" d="M20.5381 10.113C20.6591 10.081 20.7763 10.0352 20.8825 9.96992C23.027 8.65083 24.1219 8.92805 24.4566 9.67633L24.6936 9.71706L25.1715 9.79936L24.735 10.0105L24.5631 10.0936C24.6255 10.7426 24.2977 11.545 23.6965 12.0446C23.4066 12.2854 23.3488 12.7409 23.3062 13.1576C22.7753 12.0895 21.8815 11.0786 20.5381 10.113Z" fill="#F3AC00"/>
<path fill-rule="evenodd" clip-rule="evenodd" d="M15.4648 33.9283C22.4822 33.9283 29.4994 33.9283 36.5168 33.9283L33.6284 19.6863L25.6222 25.9415L21.306 22.6123C20.4246 24.1238 19.3879 25.7695 18.3038 27.5811C16.3098 30.9137 15.5805 33.4505 15.4648 33.9283Z" fill="#F3AC00"/>
<path fill-rule="evenodd" clip-rule="evenodd" d="M23.7578 17.1521L32.9775 19.1227L25.5907 24.9041L21.7266 21.8797C22.7072 20.1396 23.444 18.581 23.7578 17.1521Z" fill="#F3AC00"/>
</svg>
